<svg version="1.1" xmlns="http://www.w3.org/2000/svg" xmlns:xlink="http://www.w3.org/1999/xlink"
    width="48px" height="48px" viewBox="0,0,256,256">
    <g transform="translate(-25.6,-25.6) scale(1.2,1.2)">
        <g fill="#000000" fill-rule="nonzero" stroke="none" stroke-width="1" stroke-linecap="butt"
            stroke-linejoin="miter" stroke-miterlimit="10" stroke-dasharray="" stroke-dashoffset="0"
            font-family="none" font-weight="none" font-size="none" text-anchor="none"
            style="mix-blend-mode: normal">
            <g transform="scale(5.33333,5.33333)">
                <path
                    d="M12.5,6c-0.54095,-0.00765 -1.04412,0.27656 -1.31683,0.74381c-0.27271,0.46725 -0.27271,1.04514 0,1.51238c0.27271,0.46725 0.77588,0.75146 1.31683,0.74381h23c0.54095,0.00765 1.04412,-0.27656 1.31683,-0.74381c0.27271,-0.46725 0.27271,-1.04514 0,-1.51238c-0.27271,-0.46725 -0.77588,-0.75146 -1.31683,-0.74381zM9.5,11c-0.54095,-0.00765 -1.04412,0.27656 -1.31683,0.74381c-0.27271,0.46725 -0.27271,1.04514 0,1.51238c0.27271,0.46725 0.77588,0.75146 1.31683,0.74381h29c0.54095,0.00765 1.04412,-0.27656 1.31683,-0.74381c0.27271,-0.46725 0.27271,-1.04514 0,-1.51238c-0.27271,-0.46725 -0.77588,-0.75146 -1.31683,-0.74381zM8.5,16c-1.91495,0 -3.5,1.58505 -3.5,3.5v19c0,1.91495 1.58505,3.5 3.5,3.5h31c1.91495,0 3.5,-1.58505 3.5,-3.5v-19c0,-1.91495 -1.58505,-3.5 -3.5,-3.5zM8.5,19h31c0.29505,0 0.5,0.20496 0.5,0.5v19c0,0.29505 -0.20495,0.5 -0.5,0.5h-31c-0.29505,0 -0.5,-0.20495 -0.5,-0.5v-19c0,-0.29504 0.20495,-0.5 0.5,-0.5z"></path>
            </g>
        </g>
    </g>
</svg>