<svg version="1.1" xmlns="http://www.w3.org/2000/svg" xmlns:xlink="http://www.w3.org/1999/xlink"
    width="48px" height="48px" viewBox="0,0,256,256">
    <g transform="translate(-12.8,-12.8) scale(1.1,1.1)">
        <g fill="#000000" fill-rule="nonzero" stroke="none" stroke-width="1" stroke-linecap="butt"
            stroke-linejoin="miter" stroke-miterlimit="10" stroke-dasharray="" stroke-dashoffset="0"
            font-family="none" font-weight="none" font-size="none" text-anchor="none"
            style="mix-blend-mode: normal">
            <g transform="scale(5.33333,5.33333)">
                <path
                    d="M34,4.00195c-0.8535,0 -1.70627,0.1035 -2.57227,0.3125c-0.622,0.149 -1.08253,0.67845 -1.14453,1.31445l-0.04102,0.42188c-0.047,0.481 -0.32319,0.9123 -0.74219,1.1543c-0.419,0.241 -0.93114,0.26841 -1.36914,0.06641l-0.38867,-0.17578c-0.579,-0.263 -1.26898,-0.13197 -1.70898,0.33203c-1.198,1.26 -2.09208,2.80108 -2.58008,4.45508c-0.182,0.613 0.04736,1.27253 0.56836,1.64453l0.34961,0.25c0.393,0.283 0.62891,0.73966 0.62891,1.22266c0,0.256 -0.06945,0.5027 -0.18945,0.7207l0.1875,1.15625l1.44336,-0.54687c0.396,-0.149 0.81042,-0.22461 1.23242,-0.22461c0.055,0 0.10906,0.01458 0.16406,0.01758c0.096,-0.365 0.16211,-0.73805 0.16211,-1.12305c0,-1.206 -0.48708,-2.35536 -1.33008,-3.19336c0.24,-0.549 0.54434,-1.07164 0.90234,-1.55664c1.146,0.311 2.38373,0.15769 3.42773,-0.44531c1.044,-0.603 1.79756,-1.601 2.10156,-2.75c0.609,-0.072 1.18883,-0.072 1.79883,0c0.303,1.149 1.05461,2.147 2.09961,2.75c1.043,0.604 2.27973,0.75631 3.42773,0.44531c0.358,0.484 0.66234,1.00764 0.90234,1.55664c-0.843,0.839 -1.33008,1.98736 -1.33008,3.19336c0,1.206 0.48708,2.35536 1.33008,3.19336c-0.24,0.549 -0.54434,1.07164 -0.90234,1.55664c-1.146,-0.311 -2.38373,-0.15769 -3.42773,0.44531c-1.045,0.603 -1.79756,1.601 -2.10156,2.75c-0.344,0.041 -0.67767,0.05187 -1.01367,0.04688c0.171,0.45 0.32798,0.90323 0.45898,1.36523c0.152,0.537 0.16545,1.09019 0.06445,1.61719c0.713,-0.028 1.43802,-0.11406 2.16602,-0.28906c0.621,-0.149 1.08058,-0.67845 1.14258,-1.31445l0.04102,-0.42383c0.047,-0.481 0.32319,-0.91034 0.74219,-1.15234c0.42,-0.24 0.93214,-0.26641 1.36914,-0.06641l0.38867,0.17578c0.579,0.265 1.26998,0.13297 1.70898,-0.33203c1.198,-1.26 2.09208,-2.80108 2.58008,-4.45508c0.182,-0.614 -0.04736,-1.27353 -0.56836,-1.64453l-0.34961,-0.25c-0.393,-0.283 -0.62891,-0.73966 -0.62891,-1.22266c0,-0.483 0.23495,-0.9387 0.62695,-1.2207l0.35156,-0.25195c0.521,-0.371 0.75036,-1.03053 0.56836,-1.64453c-0.488,-1.654 -1.38208,-3.19508 -2.58008,-4.45508c-0.44,-0.465 -1.13098,-0.59703 -1.70898,-0.33203l-0.38672,0.17578c-0.442,0.2 -0.95309,0.17259 -1.37109,-0.06641c-0.419,-0.242 -0.69519,-0.67234 -0.74219,-1.15234l-0.04102,-0.42383c-0.062,-0.637 -0.52253,-1.16545 -1.14453,-1.31445c-0.866,-0.209 -1.71877,-0.3125 -2.57227,-0.3125zM34,11c-1.20833,0 -2.30452,0.50713 -2.99609,1.28516c-0.69158,0.77802 -1.00391,1.75651 -1.00391,2.71484c0,0.95833 0.31233,1.93682 1.00391,2.71484c0.69158,0.77802 1.78776,1.28516 2.99609,1.28516c1.20833,0 2.30452,-0.50713 2.99609,-1.28516c0.69158,-0.77802 1.00391,-1.75651 1.00391,-2.71484c0,-0.95833 -0.31233,-1.93682 -1.00391,-2.71484c-0.69158,-0.77802 -1.78776,-1.28516 -2.99609,-1.28516zM18,14c-1.27772,0 -2.50255,0.17609 -3.66211,0.4668c-0.58037,0.14569 -1.01866,0.62235 -1.11524,1.21289l-0.24805,1.51758c-0.09748,0.59403 -0.45423,1.10961 -0.97461,1.41016c-0.52039,0.30056 -1.14278,0.35163 -1.70703,0.13867l-1.44336,-0.54687c-0.55954,-0.21137 -1.19117,-0.07016 -1.60742,0.35938c-1.70302,1.75523 -2.97653,3.9256 -3.66211,6.3457c-0.16285,0.57514 0.03128,1.19207 0.49414,1.57031l1.19336,0.97656c0.46413,0.38219 0.73242,0.94831 0.73242,1.54883c0,0.60143 -0.26926,1.16792 -0.73437,1.54883l-1.19336,0.97656c-0.46214,0.37871 -0.65548,0.99557 -0.49219,1.57031c0.68645,2.41924 1.95886,4.59024 3.66211,6.3457c0.41633,0.42804 1.04687,0.56842 1.60547,0.35742l1.44531,-0.54492c0.56263,-0.21256 1.18504,-0.16248 1.70703,0.13867c0.5212,0.30069 0.87592,0.81519 0.97266,1.4082l0.24805,1.51758c0.09658,0.59054 0.53486,1.0672 1.11524,1.21289c1.16108,0.29192 2.38634,0.46875 3.66406,0.46875c1.27772,0 2.50255,-0.17609 3.66211,-0.4668c0.58037,-0.14569 1.01866,-0.62235 1.11523,-1.21289l0.24805,-1.51758c0.09748,-0.59403 0.45423,-1.10961 0.97461,-1.41016c0.52039,-0.30056 1.14279,-0.35163 1.70703,-0.13867l1.44336,0.54688c0.55954,0.21137 1.19117,0.07016 1.60742,-0.35937c1.70302,-1.75523 2.97653,-3.9256 3.66211,-6.3457c0.16285,-0.57514 -0.03128,-1.19207 -0.49414,-1.57031l-1.19336,-0.97656c-0.46413,-0.38219 -0.73242,-0.94831 -0.73242,-1.54883c0,-0.60143 0.26926,-1.16792 0.73438,-1.54883l1.19336,-0.97656c0.46214,-0.37871 0.65548,-0.99557 0.49219,-1.57031c-0.68657,-2.42247 -1.96749,-4.58891 -3.66602,-6.3418c-0.41625,-0.42953 -1.04788,-0.57075 -1.60742,-0.35937l-1.43945,0.54297c-0.56263,0.21256 -1.18699,0.16248 -1.70898,-0.13867c-0.5212,-0.30069 -0.87592,-0.81519 -0.97266,-1.4082l-0.25195,-1.5332c-0.09628,-0.59 -0.53367,-1.06653 -1.11328,-1.21289c-1.17024,-0.29423 -2.39739,-0.45312 -3.66016,-0.45312zM34,14c0.45833,0 0.61215,0.11787 0.75391,0.27734c0.14176,0.15948 0.24609,0.43099 0.24609,0.72266c0,0.29167 -0.10434,0.56318 -0.24609,0.72266c-0.14176,0.15948 -0.29557,0.27734 -0.75391,0.27734c-0.45833,0 -0.61215,-0.11787 -0.75391,-0.27734c-0.14176,-0.15948 -0.24609,-0.43099 -0.24609,-0.72266c0,-0.29167 0.10434,-0.56318 0.24609,-0.72266c0.14176,-0.15948 0.29557,-0.27734 0.75391,-0.27734zM18,17c0.6888,0 1.33802,0.13597 1.99414,0.24805l0.07031,0.43555c0.2417,1.47822 1.13728,2.77444 2.43555,3.52344c1.298,0.74885 2.86621,0.87514 4.26758,0.3457l0.40039,-0.15039c0.85251,1.02824 1.52466,2.1854 1.99805,3.45703l-0.33203,0.27148c-0.00065,0 -0.0013,0 -0.00195,0c-1.15884,0.94909 -1.83203,2.37057 -1.83203,3.86914c0,1.49857 0.67351,2.91935 1.83008,3.86914c0.00065,0.00065 0.0013,0.0013 0.00195,0.00195l0.33398,0.27344c-0.47259,1.27276 -1.14354,2.43056 -1.99414,3.45703l-0.4043,-0.1543c-1.40175,-0.52904 -2.97192,-0.40179 -4.26953,0.34766c-1.29762,0.74945 -2.19107,2.04352 -2.43359,3.52148c0,0.00065 0,0.0013 0,0.00195l-0.07031,0.42578c-0.65881,0.11595 -1.3124,0.25586 -1.99414,0.25586c-0.6824,0 -1.3367,-0.13936 -1.99609,-0.25586l-0.07031,-0.42578v-0.00195c-0.2417,-1.47817 -1.13533,-2.77444 -2.43359,-3.52344c-1.298,-0.74885 -2.86621,-0.87514 -4.26758,-0.3457l-0.40625,0.15234c-0.85034,-1.02666 -1.52134,-2.18354 -1.99414,-3.45703l0.33398,-0.27344c0.00065,0 0.0013,0 0.00195,0c1.15889,-0.94909 1.83203,-2.37057 1.83203,-3.86914c0,-1.49857 -0.67351,-2.91935 -1.83008,-3.86914c-0.00065,-0.00065 -0.0013,-0.0013 -0.00195,-0.00195l-0.33398,-0.27344c0.47259,-1.27276 1.14354,-2.43056 1.99414,-3.45703l0.4043,0.1543c1.40175,0.52905 2.97192,0.40179 4.26953,-0.34766c1.29763,-0.74945 2.19107,-2.04352 2.43359,-3.52148c0,-0.00065 0,-0.0013 0,-0.00195l0.07031,-0.42578c0.65876,-0.116 1.3124,-0.25586 1.99414,-0.25586zM18,23c-1.875,0 -3.47118,0.75713 -4.49609,1.91016c-1.02491,1.15302 -1.50391,2.63151 -1.50391,4.08984c0,1.45833 0.479,2.93682 1.50391,4.08984c1.02491,1.15302 2.62109,1.91016 4.49609,1.91016c1.875,0 3.47118,-0.75713 4.49609,-1.91016c1.02491,-1.15302 1.50391,-2.63151 1.50391,-4.08984c0,-1.45833 -0.479,-2.93682 -1.50391,-4.08984c-1.02491,-1.15302 -2.62109,-1.91016 -4.49609,-1.91016zM18,26c1.125,0 1.77882,0.36787 2.25391,0.90234c0.47509,0.53448 0.74609,1.30599 0.74609,2.09766c0,0.79167 -0.271,1.56318 -0.74609,2.09766c-0.47509,0.53448 -1.12891,0.90234 -2.25391,0.90234c-1.125,0 -1.77882,-0.36787 -2.25391,-0.90234c-0.47509,-0.53448 -0.74609,-1.30599 -0.74609,-2.09766c0,-0.79167 0.271,-1.56318 0.74609,-2.09766c0.47509,-0.53448 1.12891,-0.90234 2.25391,-0.90234z"></path>
            </g>
        </g>
    </g>
</svg>