<svg version="1.1" xmlns="http://www.w3.org/2000/svg" xmlns:xlink="http://www.w3.org/1999/xlink"
    width="48px" height="48px" viewBox="0,0,256,256">
    <g transform="translate(-6.4,-6.4) scale(1.05,1.05)">
        <g fill="#000000" fill-rule="nonzero" stroke="none" stroke-width="1" stroke-linecap="butt"
            stroke-linejoin="miter" stroke-miterlimit="10" stroke-dasharray="" stroke-dashoffset="0"
            font-family="none" font-weight="none" font-size="none" text-anchor="none"
            style="mix-blend-mode: normal">
            <g transform="scale(5.33333,5.33333)">
                <path
                    d="M23.5,6.01758c-3.01977,0 -5.5,2.48023 -5.5,5.5v23.98242c0,3.01977 2.48023,5.5 5.5,5.5h15c1.50989,0 2.99326,-0.55299 4.22266,-1.4668c1.2294,-0.9138 2.27734,-2.29697 2.27734,-4.0332v-16.5c-0.00097,-0.38597 -0.15067,-0.75672 -0.41797,-1.03516l0.00195,-0.00195l-0.03906,-0.03906l-10.96094,-11.46094l-0.00977,0.00977c-0.28201,-0.29042 -0.66941,-0.45453 -1.07422,-0.45508zM15.5,8.01758c-3.033,0 -5.5,2.468 -5.5,5.5v19.98242c0,3.032 2.467,5.5 5.5,5.5h1.76172c-0.687,-0.831 -1.13333,-1.867 -1.23633,-3h-0.52539c-1.378,0 -2.5,-1.121 -2.5,-2.5v-19.98242c0,-1.379 1.122,-2.5 2.5,-2.5h0.52539c0.103,-1.133 0.54833,-2.169 1.23633,-3zM23.5,9.01758h7.5v5.98242c0,3.01977 2.48023,5.5 5.5,5.5h5.5v15c0,0.47277 -0.34806,1.09105 -1.06641,1.625c-0.71835,0.53395 -1.73448,0.875 -2.43359,0.875h-15c-1.39823,0 -2.5,-1.10177 -2.5,-2.5v-23.98242c0,-1.39823 1.10177,-2.5 2.5,-2.5zM7.5,10c-3.033,0 -5.5,2.468 -5.5,5.5v16c0,3.032 2.467,5.5 5.5,5.5h1.37109c-0.481,-0.906 -0.7737,-1.923 -0.8457,-3h-0.52539c-1.378,0 -2.5,-1.121 -2.5,-2.5v-16c0,-1.379 1.122,-2.5 2.5,-2.5h0.52539c0.074,-1.078 0.37247,-2.094 0.85547,-3zM34,11.23828l5.98828,6.26172h-3.48828c-1.39823,0 -2.5,-1.10177 -2.5,-2.5z"></path>
            </g>
        </g>
    </g>
</svg>