<svg version="1.1" xmlns="http://www.w3.org/2000/svg" xmlns:xlink="http://www.w3.org/1999/xlink"
    width="48px" height="48px" viewBox="0,0,256,256">
    <g transform="translate(-12.8,-12.8) scale(1.1,1.1)">
        <g fill="#000000" fill-rule="nonzero" stroke="none" stroke-width="1" stroke-linecap="butt"
            stroke-linejoin="miter" stroke-miterlimit="10" stroke-dasharray="" stroke-dashoffset="0"
            font-family="none" font-weight="none" font-size="none" text-anchor="none"
            style="mix-blend-mode: normal">
            <g transform="scale(5.33333,5.33333)">
                <path
                    d="M23.97656,2.97852c-0.82766,0.01293 -1.48844,0.69381 -1.47656,1.52148v8.80664c-1.45695,0.60044 -2.5,2.03264 -2.5,3.69336v1h-3.5c-3.57194,0 -6.5,2.92806 -6.5,6.5v1c0,7.75 -1.92383,13.52539 -1.92383,13.52539c-0.22268,0.66756 0.0486,1.40017 0.65234,1.76172c0,0 5.41854,3.21289 14.27148,3.21289c3.39204,0 6.37305,-0.49329 8.97461,-1.05859c0.33874,0.04462 0.68257,-0.02773 0.97461,-0.20508c3.65314,-0.87131 6.14258,-1.85742 6.14258,-1.85742c0.74774,-0.32118 1.10304,-1.17996 0.80078,-1.93555c0,0 -1.89258,-4.66558 -1.89258,-13.44336v-1c0,-3.57194 -2.92806,-6.5 -6.5,-6.5h-3.5v-1c0,-1.66072 -1.04305,-3.09292 -2.5,-3.69336v-8.80664c0.00582,-0.40562 -0.15288,-0.7963 -0.43991,-1.08296c-0.28703,-0.28666 -0.67792,-0.44486 -1.08353,-0.43852zM23.95313,16.01953c0.03189,0.00102 0.06381,0.00102 0.0957,0c0.54157,0.02801 0.95117,0.42925 0.95117,0.98047v2.5c0.00008,0.82839 0.67161,1.49992 1.5,1.5h5c1.95006,0 3.5,1.54994 3.5,3.5v0.5h-22v-0.5c0,-1.95006 1.54994,-3.5 3.5,-3.5h5c0.82839,-0.00008 1.49992,-0.67161 1.5,-1.5v-2.5c0,-0.55189 0.41056,-0.95338 0.95313,-0.98047zM12.85938,28h22.27539c0.26785,5.87425 1.07672,9.06652 1.54883,10.52148c-0.67403,0.26147 -1.41049,0.5665 -3.51953,1.11133c-0.39308,-1.18183 -0.99814,-3.32167 -1.16602,-7.19727c-0.00661,-0.54698 -0.31041,-1.047 -0.79283,-1.30487c-0.48242,-0.25788 -1.06696,-0.23273 -1.52544,0.06563c-0.45848,0.29836 -0.71822,0.82263 -0.67782,1.36815c0.16407,3.78787 0.75237,6.14388 1.22461,7.68164c-2.17981,0.41429 -4.56261,0.75391 -7.22656,0.75391c-1.50668,0 -2.75733,-0.16693 -4.01367,-0.32227c0.36106,-0.94885 0.74361,-2.09698 1,-3.97461c0.07427,-0.53184 -0.1414,-1.06281 -0.5655,-1.39222c-0.42409,-0.32941 -0.99192,-0.40701 -1.48885,-0.20347c-0.49693,0.20354 -0.84716,0.65718 -0.91831,1.18944c-0.26467,1.93821 -0.65216,3.13391 -0.93945,3.80664c-0.03725,0.08722 -0.01486,0.02325 -0.04492,0.08984c-2.7982,-0.63609 -4.09144,-1.20772 -4.76953,-1.56445c0.41167,-1.39214 1.30595,-4.97366 1.59961,-10.62891z"></path>
            </g>
        </g>
    </g>
</svg>