<svg version="1.1" xmlns="http://www.w3.org/2000/svg" xmlns:xlink="http://www.w3.org/1999/xlink"
    width="48px" height="48px" viewBox="0,0,256,256">
    <g transform="translate(-12.8,-12.8) scale(1.1,1.1)">
        <g fill="#000000" fill-rule="nonzero" stroke="none" stroke-width="1" stroke-linecap="butt"
            stroke-linejoin="miter" stroke-miterlimit="10" stroke-dasharray="" stroke-dashoffset="0"
            font-family="none" font-weight="none" font-size="none" text-anchor="none"
            style="mix-blend-mode: normal">
            <g transform="scale(5.33333,5.33333)">
                <path
                    d="M20.5,3c-2.29659,0 -4.1943,1.76662 -4.44922,4h-3.55078c-2.4675,0 -4.5,2.0325 -4.5,4.5v27c0,2.4675 2.0325,4.5 4.5,4.5h23c2.4675,0 4.5,-2.0325 4.5,-4.5v-27c0,-2.4675 -2.0325,-4.5 -4.5,-4.5h-3.55078c-0.25492,-2.23338 -2.15262,-4 -4.44922,-4zM20.5,6h7c0.8465,0 1.5,0.6535 1.5,1.5c0,0.8465 -0.6535,1.5 -1.5,1.5h-7c-0.8465,0 -1.5,-0.6535 -1.5,-1.5c0,-0.8465 0.6535,-1.5 1.5,-1.5zM12.5,10h4.26953c0.81171,1.2019 2.18519,2 3.73047,2h7c1.54528,0 2.91876,-0.7981 3.73047,-2h4.26953c0.8465,0 1.5,0.6535 1.5,1.5v27c0,0.8465 -0.6535,1.5 -1.5,1.5h-23c-0.8465,0 -1.5,-0.6535 -1.5,-1.5v-27c0,-0.8465 0.6535,-1.5 1.5,-1.5zM16.5,17c-0.54095,-0.00765 -1.04412,0.27656 -1.31683,0.74381c-0.27271,0.46725 -0.27271,1.04514 0,1.51238c0.27271,0.46725 0.77588,0.75146 1.31683,0.74381h15c0.54095,0.00765 1.04412,-0.27656 1.31683,-0.74381c0.27271,-0.46725 0.27271,-1.04514 0,-1.51238c-0.27271,-0.46725 -0.77588,-0.75146 -1.31683,-0.74381zM16.5,25c-0.54095,-0.00765 -1.04412,0.27656 -1.31683,0.74381c-0.27271,0.46725 -0.27271,1.04514 0,1.51238c0.27271,0.46725 0.77588,0.75146 1.31683,0.74381h7c0.54095,0.00765 1.04412,-0.27656 1.31683,-0.74381c0.27271,-0.46725 0.27271,-1.04514 0,-1.51238c-0.27271,-0.46725 -0.77588,-0.75146 -1.31683,-0.74381zM16.5,33c-0.54095,-0.00765 -1.04412,0.27656 -1.31683,0.74381c-0.27271,0.46725 -0.27271,1.04514 0,1.51238c0.27271,0.46725 0.77588,0.75146 1.31683,0.74381h11c0.54095,0.00765 1.04412,-0.27656 1.31683,-0.74381c0.27271,-0.46725 0.27271,-1.04514 0,-1.51238c-0.27271,-0.46725 -0.77588,-0.75146 -1.31683,-0.74381z"></path>
            </g>
        </g>
    </g>
</svg>