<svg version="1.1" xmlns="http://www.w3.org/2000/svg" xmlns:xlink="http://www.w3.org/1999/xlink"
    width="48px" height="48px" viewBox="0,0,256,256">
    <g transform="translate(-12.8,-12.8) scale(1.1,1.1)">
        <g fill="#000000" fill-rule="nonzero" stroke="none" stroke-width="1" stroke-linecap="butt"
            stroke-linejoin="miter" stroke-miterlimit="10" stroke-dasharray="" stroke-dashoffset="0"
            font-family="none" font-weight="none" font-size="none" text-anchor="none"
            style="mix-blend-mode: normal">
            <g transform="scale(5.33333,5.33333)">
                <path
                    d="M10.5,7c-3.57194,0 -6.5,2.92806 -6.5,6.5v17c0,3.57194 2.92806,6.5 6.5,6.5h1.5v5.5c0,1.96599 2.4273,3.17893 4,2l10,-7.5h11.5c3.57194,0 6.5,-2.92806 6.5,-6.5v-17c0,-3.57194 -2.92806,-6.5 -6.5,-6.5zM10.5,10h27c1.95006,0 3.5,1.54994 3.5,3.5v17c0,1.95006 -1.54994,3.5 -3.5,3.5h-12c-0.32478,0.00015 -0.64073,0.1057 -0.90039,0.30078l-9.59961,7.19922v-6c-0.00008,-0.82839 -0.67161,-1.49992 -1.5,-1.5h-3c-1.95006,0 -3.5,-1.54994 -3.5,-3.5v-17c0,-1.95006 1.54994,-3.5 3.5,-3.5zM15.5,16.99805c-0.54095,-0.00765 -1.04412,0.27656 -1.31683,0.74381c-0.27271,0.46725 -0.27271,1.04514 0,1.51238c0.27271,0.46725 0.77588,0.75146 1.31683,0.74381h17c0.54095,0.00765 1.04412,-0.27656 1.31683,-0.74381c0.27271,-0.46725 0.27271,-1.04514 0,-1.51238c-0.27271,-0.46725 -0.77588,-0.75146 -1.31683,-0.74381zM15.5,23.99805c-0.54095,-0.00765 -1.04412,0.27656 -1.31683,0.74381c-0.27271,0.46725 -0.27271,1.04514 0,1.51238c0.27271,0.46725 0.77588,0.75146 1.31683,0.74381h13c0.54095,0.00765 1.04412,-0.27656 1.31683,-0.74381c0.27271,-0.46725 0.27271,-1.04514 0,-1.51238c-0.27271,-0.46725 -0.77588,-0.75146 -1.31683,-0.74381z"></path>
            </g>
        </g>
    </g>
</svg>