<svg version="1.1" xmlns="http://www.w3.org/2000/svg" xmlns:xlink="http://www.w3.org/1999/xlink"
    width="48px" height="48px" viewBox="0,0,256,256">
    <g transform="translate(-19.2,-19.2) scale(1.15,1.15)">
        <g fill="#000000" fill-rule="nonzero" stroke="none" stroke-width="1" stroke-linecap="butt"
            stroke-linejoin="miter" stroke-miterlimit="10" stroke-dasharray="" stroke-dashoffset="0"
            font-family="none" font-weight="none" font-size="none" text-anchor="none"
            style="mix-blend-mode: normal">
            <g transform="translate(256.05657,0.05658) rotate(90) scale(5.33333,5.33333)">
                <path
                    d="M13.47852,5c-0.39034,0.00571 -0.76308,0.16335 -1.03906,0.43945l-7,7c-0.39185,0.37623 -0.54969,0.9349 -0.41265,1.46055c0.13704,0.52565 0.54754,0.93616 1.07319,1.07319c0.52565,0.13704 1.08432,-0.02081 1.46055,-0.41265l4.43945,-4.43945v31.37891c-0.00765,0.54095 0.27656,1.04412 0.74381,1.31683c0.46725,0.27271 1.04514,0.27271 1.51238,0c0.46725,-0.27271 0.75146,-0.77588 0.74381,-1.31683v-31.37891l4.43945,4.43945c0.37623,0.39185 0.9349,0.54969 1.46055,0.41265c0.52565,-0.13704 0.93616,-0.54754 1.07319,-1.07319c0.13704,-0.52565 -0.0208,-1.08432 -0.41265,-1.46055l-7,-7c-0.28651,-0.28663 -0.6768,-0.44514 -1.08203,-0.43945zM34.47852,5c-0.39034,0.00571 -0.76308,0.16335 -1.03906,0.43945l-7,7c-0.39185,0.37623 -0.54969,0.9349 -0.41265,1.46055c0.13704,0.52565 0.54754,0.93616 1.07319,1.07319c0.52565,0.13704 1.08432,-0.0208 1.46055,-0.41265l4.43945,-4.43945v31.37891c-0.00765,0.54095 0.27656,1.04412 0.74381,1.31683c0.46725,0.27271 1.04514,0.27271 1.51238,0c0.46725,-0.27271 0.75146,-0.77588 0.74381,-1.31683v-31.37891l4.43945,4.43945c0.37623,0.39185 0.9349,0.54969 1.46055,0.41265c0.52565,-0.13704 0.93616,-0.54754 1.07319,-1.07319c0.13704,-0.52565 -0.0208,-1.08432 -0.41265,-1.46055l-7,-7c-0.28651,-0.28663 -0.6768,-0.44514 -1.08203,-0.43945z"></path>
            </g>
        </g>
    </g>
</svg>