<svg version="1.1" xmlns="http://www.w3.org/2000/svg" xmlns:xlink="http://www.w3.org/1999/xlink"
    width="48px" height="48px" viewBox="0,0,256,256">
    <g transform="translate(-25.6,-25.6) scale(1.2,1.2)">
        <g fill="#000000" fill-rule="nonzero" stroke="none" stroke-width="1" stroke-linecap="butt"
            stroke-linejoin="miter" stroke-miterlimit="10" stroke-dasharray="" stroke-dashoffset="0"
            font-family="none" font-weight="none" font-size="none" text-anchor="none"
            style="mix-blend-mode: normal">
            <g transform="scale(5.33333,5.33333)">
                <path
                    d="M11.5,6c-3.01977,0 -5.5,2.48023 -5.5,5.5v25c0,3.01977 2.48023,5.5 5.5,5.5h18c3.01977,0 5.5,-2.48023 5.5,-5.5c0.00765,-0.54095 -0.27656,-1.04412 -0.74381,-1.31683c-0.46725,-0.27271 -1.04514,-0.27271 -1.51238,0c-0.46725,0.27271 -0.75146,0.77588 -0.74381,1.31683c0,1.39823 -1.10177,2.5 -2.5,2.5h-18c-1.39823,0 -2.5,-1.10177 -2.5,-2.5v-25c0,-1.39823 1.10177,-2.5 2.5,-2.5h18c1.39823,0 2.5,1.10177 2.5,2.5c-0.00765,0.54095 0.27656,1.04412 0.74381,1.31683c0.46725,0.27271 1.04514,0.27271 1.51238,0c0.46725,-0.27271 0.75146,-0.77588 0.74381,-1.31683c0,-3.01977 -2.48023,-5.5 -5.5,-5.5zM33.48438,15.48438c-0.61065,0.00015 -1.16026,0.37042 -1.38978,0.93629c-0.22952,0.56587 -0.09314,1.21439 0.34486,1.63988l4.43945,4.43945h-21.37891c-0.54095,-0.00765 -1.04412,0.27656 -1.31683,0.74381c-0.27271,0.46725 -0.27271,1.04514 0,1.51238c0.27271,0.46725 0.77588,0.75146 1.31683,0.74381h21.37891l-4.43945,4.43945c-0.39185,0.37623 -0.54969,0.9349 -0.41265,1.46055c0.13704,0.52565 0.54754,0.93616 1.07319,1.07319c0.52565,0.13704 1.08432,-0.0208 1.46055,-0.41265l7,-7c0.58555,-0.58579 0.58555,-1.5353 0,-2.12109l-7,-7c-0.28248,-0.2909 -0.67069,-0.45506 -1.07617,-0.45508z"></path>
            </g>
        </g>
    </g>
</svg>