<svg version="1.1" xmlns="http://www.w3.org/2000/svg" xmlns:xlink="http://www.w3.org/1999/xlink"
    width="48px" height="48px" viewBox="0,0,256,256">
    <g transform="translate(-19.2,-19.2) scale(1.15,1.15)">
        <g fill="#000000" fill-rule="nonzero" stroke="none" stroke-width="1" stroke-linecap="butt"
            stroke-linejoin="miter" stroke-miterlimit="10" stroke-dasharray="" stroke-dashoffset="0"
            font-family="none" font-weight="none" font-size="none" text-anchor="none"
            style="mix-blend-mode: normal">
            <g transform="scale(5.33333,5.33333)">
                <path
                    d="M7.5,5c-1.36359,0 -2.5,1.13641 -2.5,2.5v6c0,1.36359 1.13641,2.5 2.5,2.5h6c1.36359,0 2.5,-1.13641 2.5,-2.5v-6c0,-1.36359 -1.13641,-2.5 -2.5,-2.5zM8,8h5v5h-5zM20.5,9c-0.54095,-0.00765 -1.04412,0.27656 -1.31683,0.74381c-0.27271,0.46725 -0.27271,1.04514 0,1.51238c0.27271,0.46725 0.77588,0.75146 1.31683,0.74381h21c0.54095,0.00765 1.04412,-0.27656 1.31683,-0.74381c0.27271,-0.46725 0.27271,-1.04514 0,-1.51238c-0.27271,-0.46725 -0.77588,-0.75146 -1.31683,-0.74381zM7.5,18.5c-1.36359,0 -2.5,1.13641 -2.5,2.5v6c0,1.36359 1.13641,2.5 2.5,2.5h6c1.36359,0 2.5,-1.13641 2.5,-2.5v-6c0,-1.36359 -1.13641,-2.5 -2.5,-2.5zM8,21.5h5v5h-5zM20.5,22.5c-0.54095,-0.00765 -1.04412,0.27656 -1.31683,0.74381c-0.27271,0.46725 -0.27271,1.04514 0,1.51238c0.27271,0.46725 0.77588,0.75146 1.31683,0.74381h21c0.54095,0.00765 1.04412,-0.27656 1.31683,-0.74381c0.27271,-0.46725 0.27271,-1.04514 0,-1.51238c-0.27271,-0.46725 -0.77588,-0.75146 -1.31683,-0.74381zM7.5,32c-1.36359,0 -2.5,1.13641 -2.5,2.5v6c0,1.36359 1.13641,2.5 2.5,2.5h6c1.36359,0 2.5,-1.13641 2.5,-2.5v-6c0,-1.36359 -1.13641,-2.5 -2.5,-2.5zM8,35h5v5h-5zM20.5,36c-0.54095,-0.00765 -1.04412,0.27656 -1.31683,0.74381c-0.27271,0.46725 -0.27271,1.04514 0,1.51238c0.27271,0.46725 0.77588,0.75146 1.31683,0.74381h21c0.54095,0.00765 1.04412,-0.27656 1.31683,-0.74381c0.27271,-0.46725 0.27271,-1.04514 0,-1.51238c-0.27271,-0.46725 -0.77588,-0.75146 -1.31683,-0.74381z"></path>
            </g>
        </g>
    </g>
</svg>