<svg version="1.1" xmlns="http://www.w3.org/2000/svg" xmlns:xlink="http://www.w3.org/1999/xlink"
    width="48px" height="48px" viewBox="0,0,256,256">
    <g transform="translate(-12.8,-12.8) scale(1.1,1.1)">
        <g fill="#000000" fill-rule="nonzero" stroke="none" stroke-width="1" stroke-linecap="butt"
            stroke-linejoin="miter" stroke-miterlimit="10" stroke-dasharray="" stroke-dashoffset="0"
            font-family="none" font-weight="none" font-size="none" text-anchor="none"
            style="mix-blend-mode: normal">
            <g transform="scale(5.33333,5.33333)">
                <path
                    d="M19.5,4c-0.54095,-0.00765 -1.04412,0.27656 -1.31683,0.74381c-0.27271,0.46725 -0.27271,1.04514 0,1.51238c0.27271,0.46725 0.77588,0.75146 1.31683,0.74381h2.5v34h-2.5c-0.54095,-0.00765 -1.04412,0.27656 -1.31683,0.74381c-0.27271,0.46725 -0.27271,1.04514 0,1.51238c0.27271,0.46725 0.77588,0.75146 1.31683,0.74381h3.75391c0.16103,0.02645 0.3253,0.02645 0.48633,0h3.75977c0.54095,0.00765 1.04412,-0.27656 1.31683,-0.74381c0.27271,-0.46725 0.27271,-1.04514 0,-1.51238c-0.27271,-0.46725 -0.77588,-0.75146 -1.31683,-0.74381h-2.5v-34h2.5c0.54095,0.00765 1.04412,-0.27656 1.31683,-0.74381c0.27271,-0.46725 0.27271,-1.04514 0,-1.51238c-0.27271,-0.46725 -0.77588,-0.75146 -1.31683,-0.74381zM10.5,10c-3.57194,0 -6.5,2.92806 -6.5,6.5v15c0,3.57194 2.92806,6.5 6.5,6.5h9.5v-3h-9.5c-1.95006,0 -3.5,-1.54994 -3.5,-3.5v-15c0,-1.95006 1.54994,-3.5 3.5,-3.5h9.5v-3zM27,10v3h9.5c1.95006,0 3.5,1.54994 3.5,3.5v15c0,1.95006 -1.54994,3.5 -3.5,3.5h-9.5v3h9.5c3.57194,0 6.5,-2.92806 6.5,-6.5v-15c0,-3.57194 -2.92806,-6.5 -6.5,-6.5z"></path>
            </g>
        </g>
    </g>
</svg>