<svg version="1.1" xmlns="http://www.w3.org/2000/svg" xmlns:xlink="http://www.w3.org/1999/xlink"
    width="48px" height="48px" viewBox="0,0,256,256">
    <g transform="translate(-12.8,-12.8) scale(1.1,1.1)">
        <g fill="#000000" fill-rule="nonzero" stroke="none" stroke-width="1" stroke-linecap="butt"
            stroke-linejoin="miter" stroke-miterlimit="10" stroke-dasharray="" stroke-dashoffset="0"
            font-family="none" font-weight="none" font-size="none" text-anchor="none"
            style="mix-blend-mode: normal">
            <g transform="scale(5.33333,5.33333)">
                <path
                    d="M24,4c-6.40435,0 -12.1093,3.02533 -15.77148,7.7207l-0.24805,-1.4043c-0.11604,-0.72108 -0.73453,-1.25381 -1.46484,-1.26172c-0.44967,-0.00441 -0.87759,0.19313 -1.16592,0.53822c-0.28833,0.34509 -0.40664,0.80132 -0.32236,1.24303l0.86719,4.92383c0.0691,0.3919 0.29108,0.74028 0.61708,0.96848c0.32601,0.2282 0.72932,0.31753 1.1212,0.24831l4.92383,-0.86719c0.81602,-0.144 1.3608,-0.92226 1.2168,-1.73828c-0.144,-0.81602 -0.92226,-1.3608 -1.73828,-1.2168l-1.30664,0.23047c3.11296,-3.88872 7.89058,-6.38477 13.27148,-6.38477c9.40629,0 17,7.59371 17,17c0,9.40629 -7.59371,17 -17,17c-9.40629,0 -17,-7.59371 -17,-17c0,-0.14534 0.00219,-0.2916 0.00586,-0.43555c0.02103,-0.82843 -0.63349,-1.51705 -1.46191,-1.53809c-0.82843,-0.02103 -1.51705,0.63349 -1.53809,1.46191c-0.00433,0.17005 -0.00586,0.34106 -0.00586,0.51172c0,11.02771 8.97229,20 20,20c11.02771,0 20,-8.97229 20,-20c0,-11.02771 -8.97229,-20 -20,-20z"></path>
            </g>
        </g>
    </g>
</svg>