<svg version="1.1" xmlns="http://www.w3.org/2000/svg" xmlns:xlink="http://www.w3.org/1999/xlink"
    width="48px" height="48px" viewBox="0,0,256,256">
    <g transform="translate(-12.8,-12.8) scale(1.1,1.1)">
        <g fill="#000000" fill-rule="nonzero" stroke="none" stroke-width="1" stroke-linecap="butt"
            stroke-linejoin="miter" stroke-miterlimit="10" stroke-dasharray="" stroke-dashoffset="0"
            font-family="none" font-weight="none" font-size="none" text-anchor="none"
            style="mix-blend-mode: normal">
            <g transform="scale(5.33333,5.33333)">
                <path
                    d="M8.5,4c-2.4675,0 -4.5,2.0325 -4.5,4.5v26c0,2.4675 2.0325,4.5 4.5,4.5h26c2.4675,0 4.5,-2.0325 4.5,-4.5v-26c0,-2.4675 -2.0325,-4.5 -4.5,-4.5zM8.5,7h26c0.8465,0 1.5,0.6535 1.5,1.5v26c0,0.8465 -0.6535,1.5 -1.5,1.5h-26c-0.8465,0 -1.5,-0.6535 -1.5,-1.5v-26c0,-0.8465 0.6535,-1.5 1.5,-1.5zM41,9.27539v26.22461c0,3.032 -2.467,5.5 -5.5,5.5h-26.22461c0.621,1.742 2.27161,3 4.22461,3h22c4.687,0 8.5,-3.813 8.5,-8.5v-22c0,-1.953 -1.258,-3.60261 -3,-4.22461zM28.4707,14.98633c-0.38956,0.01135 -0.75941,0.17386 -1.03125,0.45313l-7.93945,7.93945l-2.93945,-2.93945c-0.37623,-0.39185 -0.9349,-0.54969 -1.46055,-0.41265c-0.52565,0.13704 -0.93616,0.54754 -1.07319,1.07319c-0.13704,0.52565 0.0208,1.08432 0.41265,1.46055l4,4c0.58579,0.58555 1.5353,0.58555 2.12109,0l9,-9c0.4429,-0.43135 0.57582,-1.09023 0.33479,-1.65955c-0.24103,-0.56932 -0.80665,-0.93247 -1.42463,-0.91467z"></path>
            </g>
        </g>
    </g>
</svg>