<svg version="1.1" xmlns="http://www.w3.org/2000/svg" xmlns:xlink="http://www.w3.org/1999/xlink"
    width="48px" height="48px" viewBox="0,0,256,256">
    <g transform="translate(-25.6,-25.6) scale(1.2,1.2)">
        <g fill="#000000" fill-rule="nonzero" stroke="none" stroke-width="1" stroke-linecap="butt"
            stroke-linejoin="miter" stroke-miterlimit="10" stroke-dasharray="" stroke-dashoffset="0"
            font-family="none" font-weight="none" font-size="none" text-anchor="none"
            style="mix-blend-mode: normal">
            <g transform="scale(5.33333,5.33333)">
                <path
                    d="M11.5,6c-3.01977,0 -5.5,2.48023 -5.5,5.5v25c0,3.01977 2.48023,5.5 5.5,5.5h25c3.01977,0 5.5,-2.48023 5.5,-5.5v-25c0,-3.01977 -2.48023,-5.5 -5.5,-5.5zM11.5,9h25c1.39823,0 2.5,1.10177 2.5,2.5v25c0,1.39823 -1.10177,2.5 -2.5,2.5h-25c-1.39823,0 -2.5,-1.10177 -2.5,-2.5v-25c0,-1.39823 1.10177,-2.5 2.5,-2.5zM34.4707,15.98633c-0.38956,0.01135 -0.75941,0.17386 -1.03125,0.45313l-12.93945,12.93945l-4.93945,-4.93945c-0.37623,-0.39185 -0.9349,-0.54969 -1.46055,-0.41265c-0.52565,0.13704 -0.93616,0.54754 -1.07319,1.07319c-0.13704,0.52565 0.0208,1.08432 0.41265,1.46055l6,6c0.58579,0.58555 1.5353,0.58555 2.12109,0l14,-14c0.4429,-0.43135 0.57582,-1.09023 0.33479,-1.65955c-0.24103,-0.56932 -0.80665,-0.93247 -1.42463,-0.91467z"></path>
            </g>
        </g>
    </g>
</svg>