<svg version="1.1" xmlns="http://www.w3.org/2000/svg" xmlns:xlink="http://www.w3.org/1999/xlink"
    width="48px" height="48px" viewBox="0,0,256,256">
    <g transform="translate(-25.6,-25.6) scale(1.2,1.2)">
        <g fill="#000000" fill-rule="nonzero" stroke="none" stroke-width="1" stroke-linecap="butt"
            stroke-linejoin="miter" stroke-miterlimit="10" stroke-dasharray="" stroke-dashoffset="0"
            font-family="none" font-weight="none" font-size="none" text-anchor="none"
            style="mix-blend-mode: normal">
            <g transform="scale(5.33333,5.33333)">
                <path
                    d="M10.5,5c-3.033,0 -5.5,2.468 -5.5,5.5c0,3.032 2.467,5.5 5.5,5.5c3.033,0 5.5,-2.468 5.5,-5.5c0,-3.032 -2.467,-5.5 -5.5,-5.5zM20.5,9c-0.54095,-0.00765 -1.04412,0.27656 -1.31683,0.74381c-0.27271,0.46725 -0.27271,1.04514 0,1.51238c0.27271,0.46725 0.77588,0.75146 1.31683,0.74381h21c0.54095,0.00765 1.04412,-0.27656 1.31683,-0.74381c0.27271,-0.46725 0.27271,-1.04514 0,-1.51238c-0.27271,-0.46725 -0.77588,-0.75146 -1.31683,-0.74381zM10.5,18.5c-1.70833,0 -3.17952,0.69463 -4.12109,1.75391c-0.94158,1.05927 -1.37891,2.41276 -1.37891,3.74609c0,1.33333 0.43733,2.68682 1.37891,3.74609c0.94158,1.05927 2.41276,1.75391 4.12109,1.75391c1.70833,0 3.17952,-0.69463 4.12109,-1.75391c0.94158,-1.05927 1.37891,-2.41276 1.37891,-3.74609c0,-1.33333 -0.43733,-2.68682 -1.37891,-3.74609c-0.94158,-1.05927 -2.41276,-1.75391 -4.12109,-1.75391zM10.5,21.5c0.95833,0 1.48715,0.30537 1.87891,0.74609c0.39176,0.44073 0.62109,1.08724 0.62109,1.75391c0,0.66667 -0.22934,1.31318 -0.62109,1.75391c-0.39176,0.44073 -0.92057,0.74609 -1.87891,0.74609c-0.95833,0 -1.48715,-0.30537 -1.87891,-0.74609c-0.39176,-0.44073 -0.62109,-1.08724 -0.62109,-1.75391c0,-0.66667 0.22934,-1.31318 0.62109,-1.75391c0.39176,-0.44073 0.92057,-0.74609 1.87891,-0.74609zM20.5,22.5c-0.54095,-0.00765 -1.04412,0.27656 -1.31683,0.74381c-0.27271,0.46725 -0.27271,1.04514 0,1.51238c0.27271,0.46725 0.77588,0.75146 1.31683,0.74381h21c0.54095,0.00765 1.04412,-0.27656 1.31683,-0.74381c0.27271,-0.46725 0.27271,-1.04514 0,-1.51238c-0.27271,-0.46725 -0.77588,-0.75146 -1.31683,-0.74381zM10.5,32c-1.70833,0 -3.17952,0.69463 -4.12109,1.75391c-0.94158,1.05927 -1.37891,2.41276 -1.37891,3.74609c0,1.33333 0.43733,2.68682 1.37891,3.74609c0.94158,1.05927 2.41276,1.75391 4.12109,1.75391c1.70833,0 3.17952,-0.69463 4.12109,-1.75391c0.94158,-1.05927 1.37891,-2.41276 1.37891,-3.74609c0,-1.33333 -0.43733,-2.68682 -1.37891,-3.74609c-0.94158,-1.05927 -2.41276,-1.75391 -4.12109,-1.75391zM10.5,35c0.95833,0 1.48715,0.30537 1.87891,0.74609c0.39176,0.44073 0.62109,1.08724 0.62109,1.75391c0,0.66667 -0.22934,1.31318 -0.62109,1.75391c-0.39176,0.44073 -0.92057,0.74609 -1.87891,0.74609c-0.95833,0 -1.48715,-0.30537 -1.87891,-0.74609c-0.39176,-0.44073 -0.62109,-1.08724 -0.62109,-1.75391c0,-0.66667 0.22934,-1.31318 0.62109,-1.75391c0.39176,-0.44073 0.92057,-0.74609 1.87891,-0.74609zM20.5,36c-0.54095,-0.00765 -1.04412,0.27656 -1.31683,0.74381c-0.27271,0.46725 -0.27271,1.04514 0,1.51238c0.27271,0.46725 0.77588,0.75146 1.31683,0.74381h21c0.54095,0.00765 1.04412,-0.27656 1.31683,-0.74381c0.27271,-0.46725 0.27271,-1.04514 0,-1.51238c-0.27271,-0.46725 -0.77588,-0.75146 -1.31683,-0.74381z"></path>
            </g>
        </g>
    </g>
</svg>