<svg version="1.1" xmlns="http://www.w3.org/2000/svg" xmlns:xlink="http://www.w3.org/1999/xlink"
    width="48px" height="48px" viewBox="0,0,256,256">
    <g transform="translate(-25.6,-25.6) scale(1.2,1.2)">
        <g fill="#000000" fill-rule="nonzero" stroke="none" stroke-width="1" stroke-linecap="butt"
            stroke-linejoin="miter" stroke-miterlimit="10" stroke-dasharray="" stroke-dashoffset="0"
            font-family="none" font-weight="none" font-size="none" text-anchor="none"
            style="mix-blend-mode: normal">
            <g transform="scale(5.33333,5.33333)">
                <path
                    d="M32.47852,6c-0.39034,0.00571 -0.76308,0.16335 -1.03906,0.43945l-7,7c-0.39185,0.37623 -0.54969,0.9349 -0.41265,1.46055c0.13704,0.52565 0.54754,0.93616 1.07319,1.07319c0.52565,0.13704 1.08432,-0.0208 1.46055,-0.41265l4.43945,-4.43945v30.37891c-0.00765,0.54095 0.27656,1.04412 0.74381,1.31683c0.46725,0.27271 1.04514,0.27271 1.51238,0c0.46725,-0.27271 0.75146,-0.77588 0.74381,-1.31683v-30.37891l4.43945,4.43945c0.37623,0.39185 0.9349,0.54969 1.46055,0.41265c0.52565,-0.13704 0.93616,-0.54754 1.07319,-1.07319c0.13704,-0.52565 -0.0208,-1.08432 -0.41265,-1.46055l-7,-7c-0.28651,-0.28663 -0.6768,-0.44514 -1.08203,-0.43945zM14.5,7.99805c-0.609,0 -1.15867,0.36764 -1.38867,0.93164l-4.5,11c-0.314,0.767 0.05331,1.64403 0.82031,1.95703c0.767,0.316 1.64403,-0.05231 1.95703,-0.82031l0.4375,-1.06836h5.34766l0.4375,1.06836c0.238,0.581 0.79962,0.93164 1.39063,0.93164c0.189,0 0.38041,-0.03433 0.56641,-0.11133c0.766,-0.313 1.13431,-1.19003 0.82031,-1.95703l-4.5,-11c-0.23,-0.564 -0.77967,-0.93164 -1.38867,-0.93164zM14.5,13.46094l1.44727,3.53711h-2.89453zM11,27c-0.828,0 -1.5,0.671 -1.5,1.5c0,0.829 0.672,1.5 1.5,1.5h4.26758l-5.53125,8.69531c-0.294,0.462 -0.31283,1.04734 -0.04883,1.52734c0.262,0.48 0.76645,0.77734 1.31445,0.77734h7c0.828,0 1.5,-0.671 1.5,-1.5c0,-0.829 -0.672,-1.5 -1.5,-1.5h-4.26953l5.5332,-8.69531c0.294,-0.462 0.31283,-1.04734 0.04883,-1.52734c-0.262,-0.48 -0.76645,-0.77734 -1.31445,-0.77734z"></path>
            </g>
        </g>
    </g>
</svg>