<svg version="1.1" xmlns="http://www.w3.org/2000/svg" xmlns:xlink="http://www.w3.org/1999/xlink"
    width="48px" height="48px" viewBox="0,0,256,256">
    <g transform="translate(-25.6,-25.6) scale(1.2,1.2)">
        <g fill="#ffffff" fill-rule="nonzero" stroke="none" stroke-width="1" stroke-linecap="butt"
            stroke-linejoin="miter" stroke-miterlimit="10" stroke-dasharray="" stroke-dashoffset="0"
            font-family="none" font-weight="none" font-size="none" text-anchor="none"
            style="mix-blend-mode: normal">
            <g transform="scale(5.33333,5.33333)">
                <path
                    d="M10.5,6c-0.1895,0 -0.37592,0.01048 -0.56055,0.0293c-0.36797,0.0375 -0.72526,0.11203 -1.06836,0.21875c-1.72387,0.5362 -3.08685,1.89917 -3.62305,3.62305c-0.10672,0.3431 -0.18125,0.70039 -0.21875,1.06836c-0.00007,0.00064 0.00007,0.00131 0,0.00195c-0.01869,0.18401 -0.0293,0.36975 -0.0293,0.55859v2v23c0,3.01977 2.48023,5.5 5.5,5.5h27c3.01977,0 5.5,-2.48023 5.5,-5.5v-23v-2c0,-0.1894 -0.01026,-0.37587 -0.0293,-0.56055c-0.0375,-0.36797 -0.11203,-0.72526 -0.21875,-1.06836c-0.5362,-1.72387 -1.89917,-3.08685 -3.62305,-3.62305c-0.3431,-0.10672 -0.70039,-0.18125 -1.06836,-0.21875c-0.00064,-0.00007 -0.00131,0.00007 -0.00195,0c-0.18405,-0.0189 -0.36986,-0.0293 -0.55859,-0.0293zM32.5,9c0.828,0 1.5,0.672 1.5,1.5c0,0.828 -0.672,1.5 -1.5,1.5c-0.828,0 -1.5,-0.672 -1.5,-1.5c0,-0.828 0.672,-1.5 1.5,-1.5zM37.5,9c0.828,0 1.5,0.672 1.5,1.5c0,0.828 -0.672,1.5 -1.5,1.5c-0.828,0 -1.5,-0.672 -1.5,-1.5c0,-0.828 0.672,-1.5 1.5,-1.5zM8,15h32v21.5c0,1.39823 -1.10177,2.5 -2.5,2.5h-27c-1.39823,0 -2.5,-1.10177 -2.5,-2.5z"></path>
            </g>
        </g>
    </g>
</svg>