<svg version="1.1" xmlns="http://www.w3.org/2000/svg" xmlns:xlink="http://www.w3.org/1999/xlink"
    width="48px" height="48px" viewBox="0,0,256,256">
    <g transform="translate(-25.6,-25.6) scale(1.2,1.2)">
        <g fill="#ffffff" fill-rule="nonzero" stroke="none" stroke-width="1" stroke-linecap="butt"
            stroke-linejoin="miter" stroke-miterlimit="10" stroke-dasharray="" stroke-dashoffset="0"
            font-family="none" font-weight="none" font-size="none" text-anchor="none"
            style="mix-blend-mode: normal">
            <g transform="scale(5.33333,5.33333)">
                <path
                    d="M23.97656,3.97852c-0.08662,0.0023 -0.17288,0.0121 -0.25781,0.0293c-3.5152,0.04893 -6.80568,1.01836 -9.66211,2.66406c-0.24388,0.07354 -0.46502,0.20797 -0.64258,0.39063c-2.74865,1.72433 -5.0456,4.09196 -6.68359,6.89844c-0.14967,0.15857 -0.26298,0.34786 -0.33203,0.55469c-1.48468,2.74435 -2.3431,5.87328 -2.39062,9.19531c-0.03647,0.18836 -0.03647,0.38196 0,0.57031c0.15171,10.89819 9.05861,19.71875 19.99219,19.71875c10.93096,0 19.83632,-8.81635 19.99219,-19.71094c0.03647,-0.18836 0.03647,-0.38196 0,-0.57031c-0.04626,-3.3234 -0.9041,-6.45363 -2.38867,-9.19922c-0.06911,-0.20839 -0.18312,-0.39908 -0.33398,-0.55859c-1.63828,-2.80696 -3.93627,-5.17404 -6.68555,-6.89844c-0.17613,-0.1811 -0.39514,-0.31479 -0.63672,-0.38867c-2.85518,-1.64581 -6.14439,-2.61574 -9.6582,-2.66602c-0.10286,-0.02067 -0.2076,-0.03049 -0.3125,-0.0293zM22.5,7.07617v2.42383c-0.00765,0.54095 0.27656,1.04412 0.74381,1.31683c0.46725,0.27271 1.04514,0.27271 1.51238,0c0.46725,-0.27271 0.75146,-0.77588 0.74381,-1.31683v-2.42383c2.104,0.18338 4.09012,0.75605 5.90234,1.63281l-1.24414,2.07812c-0.27992,0.46006 -0.29177,1.03486 -0.03105,1.50606c0.26072,0.4712 0.75401,0.7665 1.29249,0.77373c0.53848,0.00723 1.03951,-0.27473 1.31278,-0.73877l1.24609,-2.08203c1.59249,1.15613 2.98474,2.57157 4.0918,4.20117l-2.13281,1.1875c-0.72379,0.40343 -0.9835,1.31722 -0.58008,2.04102c0.40343,0.72379 1.31722,0.9835 2.04102,0.58008l2.12305,-1.18164c0.7495,1.68175 1.23504,3.50623 1.40234,5.42578h-2.42383c-0.54095,-0.00765 -1.04412,0.27656 -1.31683,0.74381c-0.27271,0.46725 -0.27271,1.04514 0,1.51238c0.27271,0.46725 0.77588,0.75146 1.31683,0.74381h2.42383c-0.75821,8.69913 -8.02397,15.5 -16.92383,15.5c-8.89985,0 -16.16562,-6.80087 -16.92383,-15.5h2.42383c0.54095,0.00765 1.04412,-0.27656 1.31683,-0.74381c0.27271,-0.46725 0.27271,-1.04514 0,-1.51238c-0.27271,-0.46725 -0.77588,-0.75146 -1.31683,-0.74381h-2.42383c0.16731,-1.91956 0.65285,-3.74403 1.40234,-5.42578l2.12305,1.18164c0.72379,0.40343 1.63759,0.14372 2.04102,-0.58008c0.40343,-0.72379 0.14372,-1.63759 -0.58008,-2.04102l-2.13281,-1.1875c1.10706,-1.6296 2.49931,-3.04505 4.0918,-4.20117l1.24609,2.08203c0.27327,0.46404 0.77431,0.746 1.31278,0.73877c0.53848,-0.00723 1.03176,-0.30252 1.29249,-0.77373c0.26072,-0.4712 0.24887,-1.046 -0.03105,-1.50606l-1.24414,-2.07812c1.81223,-0.87676 3.79834,-1.44943 5.90234,-1.63281zM30.4707,15.98633c-0.38956,0.01135 -0.75941,0.17386 -1.03125,0.45313l-4.66602,4.66602c-0.25212,-0.06869 -0.51213,-0.10415 -0.77344,-0.10547c-1.65685,0 -3,1.34315 -3,3c0,1.65685 1.34315,3 3,3c0.9322,-0.00049 1.8112,-0.4343 2.37863,-1.1739c0.56743,-0.73961 0.7588,-1.70096 0.51786,-2.60149l4.66406,-4.66406c0.4429,-0.43135 0.57582,-1.09023 0.33479,-1.65955c-0.24103,-0.56932 -0.80665,-0.93247 -1.42463,-0.91467z"></path>
            </g>
        </g>
    </g>
</svg>