<svg version="1.1" xmlns="http://www.w3.org/2000/svg" xmlns:xlink="http://www.w3.org/1999/xlink"
    width="48px" height="48px" viewBox="0,0,256,256">
    <g transform="translate(-19.2,-19.2) scale(1.15,1.15)">
        <g fill="#ffffff" fill-rule="nonzero" stroke="none" stroke-width="1" stroke-linecap="butt"
            stroke-linejoin="miter" stroke-miterlimit="10" stroke-dasharray="" stroke-dashoffset="0"
            font-family="none" font-weight="none" font-size="none" text-anchor="none"
            style="mix-blend-mode: normal">
            <g transform="scale(5.33333,5.33333)">
                <path
                    d="M24.00977,5c-0.57192,-0.00357 -1.09611,0.31837 -1.35156,0.83008l-5.15234,10.30469l-12.23437,1.88281c-0.55842,0.08629 -1.02098,0.47903 -1.19669,1.01606c-0.17571,0.53703 -0.03476,1.12723 0.36466,1.52691l8.46289,8.46289l-1.88477,12.24805c-0.08598,0.55878 0.14949,1.11845 0.6091,1.44768c0.45961,0.32923 1.06528,0.37211 1.56668,0.11091l10.80664,-5.63867l10.80664,5.63867c0.5014,0.2612 1.10708,0.21832 1.56668,-0.11091c0.45961,-0.32923 0.69508,-0.8889 0.6091,-1.44768l-1.88477,-12.24805l8.46289,-8.46289c0.39941,-0.39968 0.54037,-0.98988 0.36466,-1.52691c-0.17571,-0.53703 -0.63827,-0.92977 -1.19669,-1.01606l-12.23437,-1.88281l-5.15234,-10.30469c-0.25231,-0.50542 -0.76715,-0.82625 -1.33203,-0.83008zM24,9.85352l4.1582,8.31641c0.21736,0.43536 0.63237,0.73825 1.11328,0.8125l10.07422,1.55078l-6.90625,6.90625c-0.33793,0.33795 -0.49462,0.81671 -0.42187,1.28906l1.54883,10.07031l-8.87305,-4.62891c-0.4345,-0.22646 -0.95222,-0.22646 -1.38672,0l-8.87305,4.62891l1.54883,-10.07031c0.07274,-0.47236 -0.08394,-0.95111 -0.42187,-1.28906l-6.90625,-6.90625l10.07422,-1.55078c0.48091,-0.07425 0.89593,-0.37714 1.11328,-0.8125z"></path>
            </g>
        </g>
    </g>
</svg>