<svg version="1.1" xmlns="http://www.w3.org/2000/svg" xmlns:xlink="http://www.w3.org/1999/xlink"
    width="48px" height="48px" viewBox="0,0,256,256">
    <g transform="translate(-6.4,-6.4) scale(1.05,1.05)">
        <g fill="#ffffff" fill-rule="nonzero" stroke="none" stroke-width="1" stroke-linecap="butt"
            stroke-linejoin="miter" stroke-miterlimit="10" stroke-dasharray="" stroke-dashoffset="0"
            font-family="none" font-weight="none" font-size="none" text-anchor="none"
            style="mix-blend-mode: normal">
            <g transform="scale(5.33333,5.33333)">
                <path
                    d="M12.5,4c-2.481,0 -4.5,2.019 -4.5,4.5v31c0,2.481 2.019,4.5 4.5,4.5h14.11914c-0.853,-0.889 -1.5803,-1.898 -2.1543,-3h-11.96484c-0.827,0 -1.5,-0.673 -1.5,-1.5v-31c0,-0.827 0.673,-1.5 1.5,-1.5h11.5v8.5c0,2.481 2.019,4.5 4.5,4.5h8.5v2.03711c1.039,0.079 2.044,0.28084 3,0.58984v-4.12695c0,-0.4145 -0.16808,-0.78917 -0.43945,-1.06055l-13,-13c-0.27137,-0.27137 -0.64605,-0.43945 -1.06055,-0.43945zM27,9.12109l7.87891,7.87891h-6.37891c-0.827,0 -1.5,-0.673 -1.5,-1.5zM36,24c-0.587,0 -1.16166,0.04953 -1.72266,0.14453l-0.3457,1.43164c-0.537,2.225 -2.82648,3.54744 -5.02148,2.89844l-1.20508,-0.35742c-0.724,0.933 -1.30408,1.99363 -1.70508,3.14062l0.89453,0.85938c1.635,1.574 1.635,4.19163 0,5.76562l-0.89453,0.85938c0.401,1.147 0.98008,2.20662 1.70508,3.14062l1.20508,-0.35742c2.195,-0.649 4.48448,0.67344 5.02148,2.89844l0.3457,1.43164c0.561,0.095 1.13666,0.14453 1.72266,0.14453c0.587,0 1.16166,-0.04953 1.72266,-0.14453l0.3457,-1.43164c0.537,-2.225 2.82648,-3.54744 5.02148,-2.89844l1.20508,0.35742c0.724,-0.933 1.30408,-1.99363 1.70508,-3.14062l-0.89453,-0.85938c-1.635,-1.573 -1.635,-4.19262 0,-5.76562l0.89453,-0.85938c-0.401,-1.147 -0.98008,-2.20663 -1.70508,-3.14062l-1.20508,0.35742c-2.195,0.649 -4.48448,-0.67344 -5.02148,-2.89844l-0.3457,-1.43164c-0.561,-0.095 -1.13566,-0.14453 -1.72266,-0.14453zM36,32c1.657,0 3,1.343 3,3c0,1.657 -1.343,3 -3,3c-1.657,0 -3,-1.343 -3,-3c0,-1.657 1.343,-3 3,-3z"></path>
            </g>
        </g>
    </g>
</svg>