<svg version="1.1" xmlns="http://www.w3.org/2000/svg" xmlns:xlink="http://www.w3.org/1999/xlink"
    width="48px" height="48px" viewBox="0,0,256,256">
    <g transform="translate(-12.8,-12.8) scale(1.1,1.1)">
        <g fill="#ffffff" fill-rule="nonzero" stroke="none" stroke-width="1" stroke-linecap="butt"
            stroke-linejoin="miter" stroke-miterlimit="10" stroke-dasharray="" stroke-dashoffset="0"
            font-family="none" font-weight="none" font-size="none" text-anchor="none"
            style="mix-blend-mode: normal">
            <g transform="scale(5.33333,5.33333)">
                <path
                    d="M10.501,28.999c-0.829,0 -1.5,-0.671 -1.5,-1.5v-14.984l-3.069,0.921c-0.798,0.238 -1.63,-0.212 -1.868,-1.006c-0.238,-0.793 0.212,-1.63 1.006,-1.868l5,-1.5c0.455,-0.134 0.946,-0.049 1.327,0.233c0.38,0.284 0.604,0.73 0.604,1.204v17c0,0.829 -0.671,1.5 -1.5,1.5M27.5,39h-9c-0.829,0 -1.5,-0.671 -1.5,-1.5c0,-6.22 3.63,-7.55 6.033,-8.429l0.44,-0.163c1.511,-0.567 2.527,-2.137 2.527,-3.908c0,-1.654 -1.346,-3 -3,-3c-1.654,0 -3,1.346 -3,3v0.5c0,0.829 -0.671,1.5 -1.5,1.5c-0.829,0 -1.5,-0.671 -1.5,-1.5v-0.5c0,-3.309 2.691,-6 6,-6c3.309,0 6,2.691 6,6c0,3.014 -1.798,5.714 -4.473,6.717l-0.463,0.171c-1.961,0.718 -3.567,1.306 -3.968,4.112h7.404c0.829,0 1.5,0.671 1.5,1.5c0,0.829 -0.671,1.5 -1.5,1.5M38,29.001c-3.595,0 -5.591,-2.462 -5.675,-2.567c-0.515,-0.649 -0.407,-1.592 0.242,-2.108c0.645,-0.511 1.583,-0.407 2.099,0.231c0.066,0.079 1.24,1.444 3.334,1.444c1.654,0 3,-1.233 3,-2.75c0,-1.517 -1.346,-2.75 -3,-2.75h-0.5c-0.829,0 -1.5,-0.671 -1.5,-1.5c0,-0.829 0.671,-1.5 1.5,-1.5h0.25c1.517,0 2.75,-1.233 2.75,-2.75c0,-1.517 -1.233,-2.75 -2.75,-2.75c-1.946,0 -3.04,1.386 -3.05,1.4c-0.497,0.663 -1.438,0.798 -2.1,0.3c-0.662,-0.497 -0.797,-1.437 -0.3,-2.1c0.079,-0.106 1.99,-2.6 5.45,-2.6c3.17,0 5.75,2.58 5.75,5.75c0,1.585 -0.645,3.023 -1.686,4.064c1.334,1.056 2.186,2.652 2.186,4.436c0,3.17 -2.691,5.75 -6,5.75"></path>
            </g>
        </g>
    </g>
</svg>