<svg version="1.1" xmlns="http://www.w3.org/2000/svg" xmlns:xlink="http://www.w3.org/1999/xlink"
    width="48px" height="48px" viewBox="0,0,256,256">
    <g transform="translate(-12.8,-12.8) scale(1.1,1.1)">
        <g fill="#ffffff" fill-rule="nonzero" stroke="none" stroke-width="1" stroke-linecap="butt"
            stroke-linejoin="miter" stroke-miterlimit="10" stroke-dasharray="" stroke-dashoffset="0"
            font-family="none" font-weight="none" font-size="none" text-anchor="none"
            style="mix-blend-mode: normal">
            <g transform="scale(5.33333,5.33333)">
                <path
                    d="M32.5,5c-2.4675,0 -4.5,2.0325 -4.5,4.5v0.5h-22.5c-0.54095,-0.00765 -1.04412,0.27656 -1.31683,0.74381c-0.27271,0.46725 -0.27271,1.04514 0,1.51238c0.27271,0.46725 0.77588,0.75146 1.31683,0.74381h22.5v0.5c0,2.4675 2.0325,4.5 4.5,4.5c2.4675,0 4.5,-2.0325 4.5,-4.5v-0.5h5.5c0.54095,0.00765 1.04412,-0.27656 1.31683,-0.74381c0.27271,-0.46725 0.27271,-1.04514 0,-1.51238c-0.27271,-0.46725 -0.77588,-0.75146 -1.31683,-0.74381h-5.5v-0.5c0,-2.4675 -2.0325,-4.5 -4.5,-4.5zM32.5,8c0.8465,0 1.5,0.6535 1.5,1.5v1.75391c-0.02645,0.16103 -0.02645,0.3253 0,0.48633v1.75977c0,0.8465 -0.6535,1.5 -1.5,1.5c-0.8465,0 -1.5,-0.6535 -1.5,-1.5v-1.75391c0.02645,-0.16103 0.02645,-0.3253 0,-0.48633v-1.75977c0,-0.8465 0.6535,-1.5 1.5,-1.5zM15.5,17.5c-2.4675,0 -4.5,2.0325 -4.5,4.5v0.5h-5.5c-0.54095,-0.00765 -1.04412,0.27656 -1.31683,0.74381c-0.27271,0.46725 -0.27271,1.04514 0,1.51238c0.27271,0.46725 0.77588,0.75146 1.31683,0.74381h5.5v0.5c0,2.4675 2.0325,4.5 4.5,4.5c2.4675,0 4.5,-2.0325 4.5,-4.5v-0.5h22.5c0.54095,0.00765 1.04412,-0.27656 1.31683,-0.74381c0.27271,-0.46725 0.27271,-1.04514 0,-1.51238c-0.27271,-0.46725 -0.77588,-0.75146 -1.31683,-0.74381h-22.5v-0.5c0,-2.4675 -2.0325,-4.5 -4.5,-4.5zM15.5,20.5c0.8465,0 1.5,0.6535 1.5,1.5v1.75391c-0.02645,0.16103 -0.02645,0.3253 0,0.48633v1.75977c0,0.8465 -0.6535,1.5 -1.5,1.5c-0.8465,0 -1.5,-0.6535 -1.5,-1.5v-1.75391c0.02645,-0.16103 0.02645,-0.3253 0,-0.48633v-1.75977c0,-0.8465 0.6535,-1.5 1.5,-1.5zM30.5,30c-2.4675,0 -4.5,2.0325 -4.5,4.5v0.5h-20.5c-0.54095,-0.00765 -1.04412,0.27656 -1.31683,0.74381c-0.27271,0.46725 -0.27271,1.04514 0,1.51238c0.27271,0.46725 0.77588,0.75146 1.31683,0.74381h20.5v0.5c0,2.4675 2.0325,4.5 4.5,4.5c2.4675,0 4.5,-2.0325 4.5,-4.5v-0.5h7.5c0.54095,0.00765 1.04412,-0.27656 1.31683,-0.74381c0.27271,-0.46725 0.27271,-1.04514 0,-1.51238c-0.27271,-0.46725 -0.77588,-0.75146 -1.31683,-0.74381h-7.5v-0.5c0,-2.4675 -2.0325,-4.5 -4.5,-4.5zM30.5,33c0.8465,0 1.5,0.6535 1.5,1.5v1.75391c-0.02645,0.16103 -0.02645,0.3253 0,0.48633v1.75977c0,0.8465 -0.6535,1.5 -1.5,1.5c-0.8465,0 -1.5,-0.6535 -1.5,-1.5v-1.75391c0.02645,-0.16103 0.02645,-0.3253 0,-0.48633v-1.75977c0,-0.8465 0.6535,-1.5 1.5,-1.5z"></path>
            </g>
        </g>
    </g>
</svg>