<svg version="1.1" xmlns="http://www.w3.org/2000/svg" xmlns:xlink="http://www.w3.org/1999/xlink"
    width="48px" height="48px" viewBox="0,0,256,256">
    <g transform="translate(-25.6,-25.6) scale(1.2,1.2)">
        <g fill="#ffffff" fill-rule="nonzero" stroke="none" stroke-width="1" stroke-linecap="butt"
            stroke-linejoin="miter" stroke-miterlimit="10" stroke-dasharray="" stroke-dashoffset="0"
            font-family="none" font-weight="none" font-size="none" text-anchor="none"
            style="mix-blend-mode: normal">
            <g transform="scale(5.33333,5.33333)">
                <path
                    d="M18.99609,5.02344c-1.17336,-0.02914 -2.36159,0.38698 -3.26562,1.29102l-9.41602,9.41406c0,0.00065 0,0.0013 0,0.00195c-2.06569,2.06718 -1.58845,5.62259 0.94922,7.07227l10.09961,5.77344l3.79297,9.48047c0.18728,0.46805 0.59713,0.81074 1.09094,0.91217c0.49382,0.10144 1.00556,-0.05194 1.36218,-0.40827l6.41602,-6.41406l10.41406,10.41406c0.37623,0.39185 0.9349,0.54969 1.46055,0.41265c0.52565,-0.13704 0.93616,-0.54754 1.07319,-1.07319c0.13704,-0.52565 -0.0208,-1.08432 -0.41265,-1.46055l-10.41406,-10.41406l6.41602,-6.41602c0.35633,-0.35662 0.5097,-0.86836 0.40827,-1.36218c-0.10144,-0.49382 -0.44412,-0.90366 -0.91217,-1.09094l-9.48242,-3.79297l-5.77148,-10.09961c0,-0.00065 0,-0.0013 0,-0.00195c-0.72538,-1.26849 -1.97783,-2.02129 -3.30664,-2.19922c-0.1661,-0.02224 -0.33433,-0.0349 -0.50195,-0.03906zM18.77734,7.98438c0.10968,-0.01102 0.21976,-0.00866 0.32813,0.00586c0.43344,0.05807 0.84013,0.31821 1.09375,0.76172l6.0332,10.55469c0.1678,0.2939 0.43005,0.52242 0.74414,0.64844l7.85547,3.14063l-11.73633,11.73633l-3.14062,-7.85547c-0.12565,-0.31481 -0.35421,-0.5778 -0.64844,-0.74609l-10.55469,-6.03125c-0.88572,-0.50598 -1.03506,-1.62478 -0.31445,-2.34766v-0.00195l9.41406,-9.41211c0.27061,-0.27061 0.59673,-0.42006 0.92578,-0.45312z"></path>
            </g>
        </g>
    </g>
</svg>