<svg version="1.1" xmlns="http://www.w3.org/2000/svg" xmlns:xlink="http://www.w3.org/1999/xlink"
    width="48px" height="48px" viewBox="0,0,256,256">
    <g transform="translate(-25.6,-25.6) scale(1.2,1.2)">
        <g fill="#ffffff" fill-rule="nonzero" stroke="none" stroke-width="1" stroke-linecap="butt"
            stroke-linejoin="miter" stroke-miterlimit="10" stroke-dasharray="" stroke-dashoffset="0"
            font-family="none" font-weight="none" font-size="none" text-anchor="none"
            style="mix-blend-mode: normal">
            <g transform="scale(5.33333,5.33333)">
                <path
                    d="M33.47656,5.97852c-0.82766,0.01293 -1.48844,0.69381 -1.47656,1.52148v30.37891l-4.43945,-4.43945c-0.37623,-0.39185 -0.9349,-0.54969 -1.46055,-0.41265c-0.52565,0.13704 -0.93616,0.54754 -1.07319,1.07319c-0.13704,0.52565 0.0208,1.08432 0.41265,1.46055l7,7c0.58579,0.58555 1.5353,0.58555 2.12109,0l7,-7c0.39185,-0.37623 0.54969,-0.9349 0.41265,-1.46055c-0.13704,-0.52565 -0.54754,-0.93616 -1.07319,-1.07319c-0.52565,-0.13704 -1.08432,0.0208 -1.46055,0.41265l-4.43945,4.43945v-30.37891c0.00582,-0.40562 -0.15288,-0.7963 -0.43991,-1.08296c-0.28703,-0.28666 -0.67792,-0.44486 -1.08353,-0.43852zM15.5,7.99805c-0.609,0 -1.15867,0.36764 -1.38867,0.93164l-4.5,11c-0.314,0.767 0.05331,1.64403 0.82031,1.95703c0.767,0.316 1.64403,-0.05231 1.95703,-0.82031l0.4375,-1.06836h5.34766l0.4375,1.06836c0.238,0.581 0.79962,0.93164 1.39063,0.93164c0.189,0 0.38041,-0.03433 0.56641,-0.11133c0.766,-0.313 1.13431,-1.19003 0.82031,-1.95703l-4.5,-11c-0.23,-0.564 -0.77967,-0.93164 -1.38867,-0.93164zM15.5,13.46094l1.44727,3.53711h-2.89453zM12,27c-0.828,0 -1.5,0.671 -1.5,1.5c0,0.829 0.672,1.5 1.5,1.5h4.26758l-5.53125,8.69531c-0.294,0.462 -0.31283,1.04734 -0.04883,1.52734c0.262,0.48 0.76645,0.77734 1.31445,0.77734h7c0.828,0 1.5,-0.671 1.5,-1.5c0,-0.829 -0.672,-1.5 -1.5,-1.5h-4.26953l5.5332,-8.69531c0.294,-0.462 0.31283,-1.04734 0.04883,-1.52734c-0.262,-0.48 -0.76645,-0.77734 -1.31445,-0.77734z"></path>
            </g>
        </g>
    </g>
</svg>